<svg width="20" height="26" viewBox="0 0 20 26" fill="none" xmlns="http://www.w3.org/2000/svg">
<path d="M10.0394 6.2715C9.74592 6.2715 9.50773 6.03164 9.50773 5.7361C9.50773 3.66623 11.1751 1.98828 13.2295 1.98828C13.524 1.98828 13.7611 2.22814 13.7611 2.52368C13.7611 4.59355 12.0949 6.2715 10.0394 6.2715Z" stroke="#9FA3EB" stroke-width="2"/>
<path d="M17.8024 18.5455C18.0076 18.7008 18.0746 18.9824 17.9587 19.2137C16.0872 22.9851 14.5942 24.8633 13.23 24.8633C12.5951 24.8633 11.971 24.6566 11.3627 24.254C10.4769 23.6661 9.33384 23.6415 8.42361 24.1897C7.68671 24.6341 6.98489 24.8633 6.31817 24.8633C4.31162 24.8633 1.0014 18.6408 1.0014 15.226C1.0014 11.581 2.89949 8.80121 5.78649 8.80121C7.1444 8.80121 8.31727 9.00252 9.30194 9.41156C9.71984 9.58504 10.192 9.57219 10.5992 9.37516C11.3989 8.9886 12.4527 8.80121 13.7616 8.80121C15.3588 8.80121 16.7507 9.60217 17.9087 11.157C18.0842 11.3936 18.0374 11.7288 17.8024 11.9065C16.5104 12.882 15.8883 13.9785 15.8883 15.226C15.8883 16.4735 16.5104 17.57 17.8024 18.5455Z" stroke="#9FA3EB" stroke-width="2"/>
</svg>
