<svg width="22" height="29" viewBox="0 0 22 29" fill="none" xmlns="http://www.w3.org/2000/svg">
<path d="M12.0444 6.34408C11.7157 6.34408 11.449 6.07544 11.449 5.74443C11.449 3.42618 13.3164 1.54688 15.6173 1.54688C15.9472 1.54688 16.2128 1.81552 16.2128 2.14653C16.2128 4.46478 14.3466 6.34408 12.0444 6.34408Z" stroke="#4C48F4" stroke-width="2"/>
<path d="M20.739 20.091C20.9688 20.2649 21.0439 20.5803 20.914 20.8394C18.818 25.0633 17.1459 27.1669 15.6179 27.1669C14.9069 27.1669 14.2078 26.9354 13.5265 26.4845C12.5345 25.8261 11.2542 25.7985 10.2347 26.4125C9.40941 26.9102 8.62338 27.1669 7.87665 27.1669C5.62932 27.1669 1.92188 20.1977 1.92188 16.3732C1.92188 12.2907 4.04773 9.17735 7.28118 9.17735C8.80203 9.17735 10.1157 9.40282 11.2185 9.86095C11.6865 10.0552 12.2153 10.0408 12.6714 9.82018C13.567 9.38723 14.7473 9.17735 16.2133 9.17735C18.0022 9.17735 19.5611 10.0744 20.8581 11.8158C21.0546 12.0809 21.0022 12.4562 20.739 12.6553C19.292 13.7479 18.5953 14.976 18.5953 16.3732C18.5953 17.7703 19.292 18.9984 20.739 20.091Z" stroke="#4C48F4" stroke-width="2"/>
</svg>
