<svg width="54" height="54" viewBox="0 0 54 54" fill="none" xmlns="http://www.w3.org/2000/svg">
<path d="M43.8349 23.6251C43.8517 19.1736 42.1024 14.8972 38.9706 11.7337C35.8387 8.57021 31.5801 6.77798 27.1286 6.75008H27.0021C24.7888 6.75285 22.5977 7.19153 20.554 8.04108C18.5102 8.89063 16.6538 10.1344 15.0907 11.7014C13.5277 13.2684 12.2885 15.1279 11.4441 17.1738C10.5997 19.2196 10.1665 21.4118 10.1693 23.6251C10.1693 30.8602 8.67161 34.9524 7.42708 37.104C7.12784 37.6191 6.96847 38.2035 6.96477 38.7992C6.96107 39.3949 7.11317 39.9813 7.40598 40.5001C7.70132 41.016 8.12845 41.4441 8.64365 41.7406C9.15885 42.0371 9.74359 42.1914 10.338 42.1876H18.5646C18.5646 44.4254 19.4535 46.5715 21.0359 48.1538C22.6182 49.7361 24.7643 50.6251 27.0021 50.6251C29.2398 50.6251 31.3859 49.7361 32.9683 48.1538C34.5506 46.5715 35.4396 44.4254 35.4396 42.1876H43.6661C44.2606 42.1914 44.8453 42.0371 45.3605 41.7406C45.8757 41.4441 46.3028 41.016 46.5982 40.5001C46.891 39.9813 47.0431 39.3949 47.0394 38.7992C47.0357 38.2035 46.8763 37.6191 46.5771 37.104C45.3325 34.9524 43.8349 30.8602 43.8349 23.6251ZM27.0021 47.2501C25.6611 47.2445 24.3767 46.7094 23.4285 45.7612C22.4803 44.813 21.9451 43.5285 21.9396 42.1876H32.0646C32.059 43.5285 31.5239 44.813 30.5757 45.7612C29.6275 46.7094 28.343 47.2445 27.0021 47.2501ZM47.4419 15.4618C47.2091 15.5655 46.9584 15.6228 46.7036 15.6306C46.3864 15.6333 46.0749 15.5455 45.8059 15.3773C45.5369 15.2092 45.3214 14.9677 45.1849 14.6813C43.5189 11.3292 40.9653 8.49839 37.8021 6.49696C37.6137 6.37923 37.4504 6.22555 37.3214 6.0447C37.1924 5.86385 37.1003 5.65937 37.0504 5.44293C37.0004 5.22649 36.9936 5.00233 37.0303 4.78325C37.067 4.56417 37.1465 4.35446 37.2642 4.1661C37.3819 3.97773 37.5356 3.8144 37.7164 3.68543C37.8973 3.55645 38.1018 3.46436 38.3182 3.41442C38.5347 3.36447 38.7588 3.35764 38.9779 3.39432C39.197 3.43101 39.4067 3.51048 39.595 3.62821C43.2973 5.95946 46.2773 9.27547 48.2013 13.2048C48.3989 13.6049 48.4299 14.0671 48.2876 14.4901C48.1453 14.9131 47.8412 15.2625 47.4419 15.4618ZM7.30051 15.6306C7.04579 15.6228 6.79503 15.5655 6.56223 15.4618C6.16292 15.2625 5.85883 14.9131 5.71652 14.4901C5.5742 14.0671 5.60524 13.6049 5.80286 13.2048C7.72686 9.27547 10.7069 5.95946 14.4091 3.62821C14.7895 3.39045 15.2488 3.31354 15.6859 3.41442C15.9024 3.46436 16.1069 3.55645 16.2877 3.68543C16.4686 3.8144 16.6222 3.97773 16.74 4.1661C16.8577 4.35446 16.9372 4.56417 16.9739 4.78325C17.0105 5.00233 17.0037 5.22649 16.9538 5.44293C16.9038 5.65937 16.8117 5.86385 16.6827 6.0447C16.5538 6.22555 16.3904 6.37923 16.2021 6.49696C13.0388 8.49839 10.4852 11.3292 8.81926 14.6813C8.68273 14.9677 8.46729 15.2092 8.19825 15.3773C7.92921 15.5455 7.61776 15.6333 7.30051 15.6306Z" fill="url(#paint0_linear_1798_6902)"/>
<defs>
<linearGradient id="paint0_linear_1798_6902" x1="18.004" y1="53.1237" x2="21.1693" y2="32.8376" gradientUnits="userSpaceOnUse">
<stop stop-color="#4C48F4"/>
<stop offset="1" stop-color="#9193FF"/>
</linearGradient>
</defs>
</svg>
