<svg width="64" height="64" viewBox="0 0 64 64" fill="none" xmlns="http://www.w3.org/2000/svg">
<path d="M32 44V20" stroke="white" stroke-width="3" stroke-linecap="round" stroke-linejoin="round"/>
<path d="M22 36C23.9778 36 25.9112 36.5865 27.5557 37.6853C29.2002 38.7841 30.4819 40.3459 31.2388 42.1732C31.9957 44.0004 32.1937 46.0111 31.8079 47.9509C31.422 49.8907 30.4696 51.6725 29.0711 53.0711C27.6725 54.4696 25.8907 55.422 23.9509 55.8079C22.0111 56.1937 20.0004 55.9957 18.1732 55.2388C16.3459 54.4819 14.7841 53.2002 13.6853 51.5557C12.5865 49.9112 12 47.9778 12 46V44.325" stroke="white" stroke-width="3" stroke-linecap="round" stroke-linejoin="round"/>
<path d="M42 36C40.0222 36 38.0888 36.5865 36.4443 37.6853C34.7998 38.7841 33.5181 40.3459 32.7612 42.1732C32.0043 44.0004 31.8063 46.0111 32.1922 47.9509C32.578 49.8907 33.5304 51.6725 34.9289 53.0711C36.3275 54.4696 38.1093 55.422 40.0491 55.8079C41.9889 56.1937 43.9996 55.9957 45.8268 55.2388C47.6541 54.4819 49.2159 53.2002 50.3147 51.5557C51.4135 49.9112 52 47.9778 52 46V44.325" stroke="white" stroke-width="3" stroke-linecap="round" stroke-linejoin="round"/>
<path d="M18 45H16C13.1636 45.0076 10.4161 44.0102 8.24511 42.1848C6.07409 40.3594 4.61988 37.824 4.14045 35.0283C3.66103 32.2327 4.18739 29.3576 5.62617 26.9131C7.06494 24.4687 9.32309 22.6129 12 21.675V18C12 15.3478 13.0536 12.8043 14.9289 10.9289C16.8043 9.05357 19.3478 8 22 8C24.6522 8 27.1957 9.05357 29.0711 10.9289C30.9464 12.8043 32 15.3478 32 18V46" stroke="white" stroke-width="3" stroke-linecap="round" stroke-linejoin="round"/>
<path d="M46 45H48C50.8364 45.0076 53.5839 44.0102 55.7549 42.1848C57.9259 40.3594 59.3801 37.824 59.8596 35.0283C60.339 32.2327 59.8126 29.3576 58.3738 26.9131C56.9351 24.4687 54.6769 22.6129 52 21.675V18C52 15.3478 50.9464 12.8043 49.0711 10.9289C47.1957 9.05357 44.6522 8 42 8C39.3478 8 36.8043 9.05357 34.9289 10.9289C33.0536 12.8043 32 15.3478 32 18" stroke="white" stroke-width="3" stroke-linecap="round" stroke-linejoin="round"/>
<path d="M22 21V23C22 24.8565 21.2625 26.637 19.9497 27.9497C18.637 29.2625 16.8565 30 15 30" stroke="white" stroke-width="3" stroke-linecap="round" stroke-linejoin="round"/>
<path d="M42 21V23C42 24.8565 42.7375 26.637 44.0503 27.9497C45.363 29.2625 47.1435 30 49 30" stroke="white" stroke-width="3" stroke-linecap="round" stroke-linejoin="round"/>
</svg>
