<svg width="32" height="32" viewBox="0 0 32 32" fill="none" xmlns="http://www.w3.org/2000/svg">
<path d="M29.2932 24.4413C29.2932 24.9213 29.1865 25.4146 28.9598 25.8946C28.7332 26.3746 28.4398 26.828 28.0532 27.2546C27.3998 27.9746 26.6798 28.4946 25.8665 28.828C25.0665 29.1613 24.1998 29.3346 23.2665 29.3346C21.9065 29.3346 20.4532 29.0146 18.9198 28.3613C17.3865 27.708 15.8532 26.828 14.3332 25.7213C12.7998 24.6013 11.3465 23.3613 9.95984 21.988C8.5865 20.6013 7.3465 19.148 6.23984 17.628C5.1465 16.108 4.2665 14.588 3.6265 13.0813C2.9865 11.5613 2.6665 10.108 2.6665 8.7213C2.6665 7.81464 2.8265 6.94797 3.1465 6.14797C3.4665 5.33464 3.97317 4.58797 4.67984 3.9213C5.53317 3.0813 6.4665 2.66797 7.45317 2.66797C7.8265 2.66797 8.19984 2.74797 8.53317 2.90797C8.87984 3.06797 9.1865 3.30797 9.4265 3.65464L12.5198 8.01464C12.7598 8.34797 12.9332 8.65464 13.0532 8.94797C13.1732 9.22797 13.2398 9.50797 13.2398 9.7613C13.2398 10.0813 13.1465 10.4013 12.9598 10.708C12.7865 11.0146 12.5332 11.3346 12.2132 11.6546L11.1998 12.708C11.0532 12.8546 10.9865 13.028 10.9865 13.2413C10.9865 13.348 10.9998 13.4413 11.0265 13.548C11.0665 13.6546 11.1065 13.7346 11.1332 13.8146C11.3732 14.2546 11.7865 14.828 12.3732 15.5213C12.9732 16.2146 13.6132 16.9213 14.3065 17.628C15.0265 18.3346 15.7198 18.988 16.4265 19.588C17.1198 20.1746 17.6932 20.5746 18.1465 20.8146C18.2132 20.8413 18.2932 20.8813 18.3865 20.9213C18.4932 20.9613 18.5998 20.9746 18.7198 20.9746C18.9465 20.9746 19.1198 20.8946 19.2665 20.748L20.2798 19.748C20.6132 19.4146 20.9332 19.1613 21.2398 19.0013C21.5465 18.8146 21.8532 18.7213 22.1865 18.7213C22.4398 18.7213 22.7065 18.7746 22.9998 18.8946C23.2932 19.0146 23.5998 19.188 23.9332 19.4146L28.3465 22.548C28.6932 22.788 28.9332 23.068 29.0798 23.4013C29.2132 23.7346 29.2932 24.068 29.2932 24.4413Z" stroke="#9FA3EB" stroke-width="1.5" stroke-miterlimit="10"/>
</svg>
