<svg width="63" height="63" viewBox="0 0 63 63" fill="none" xmlns="http://www.w3.org/2000/svg">
<path fill-rule="evenodd" clip-rule="evenodd" d="M23.625 57.75H39.375C52.5 57.75 57.75 52.5 57.75 39.375V23.625C57.75 10.5 52.5 5.25 39.375 5.25H23.625C10.5 5.25 5.25 10.5 5.25 23.625V39.375C5.25 52.5 10.5 57.75 23.625 57.75ZM40.687 48.5586C43.5745 48.5586 45.937 46.1961 45.937 43.3086V19.6836C45.937 16.7961 43.5745 14.4336 40.687 14.4336C37.7995 14.4336 35.437 16.7961 35.437 19.6836V43.3086C35.437 46.1961 37.7733 48.5586 40.687 48.5586ZM27.5625 43.3125C27.5625 46.2 25.2 48.5625 22.3125 48.5625C19.3988 48.5625 17.0625 46.2 17.0625 43.3125V34.125C17.0625 31.2375 19.425 28.875 22.3125 28.875C25.2 28.875 27.5625 31.2375 27.5625 34.125V43.3125Z" fill="url(#paint0_linear_1685_6197)"/>
<defs>
<linearGradient id="paint0_linear_1685_6197" x1="20.4491" y1="60.526" x2="23.6441" y2="37.89" gradientUnits="userSpaceOnUse">
<stop stop-color="#4C48F4"/>
<stop offset="1" stop-color="#9193FF"/>
</linearGradient>
</defs>
</svg>
