<svg width="68" height="68" viewBox="0 0 68 68" fill="none" xmlns="http://www.w3.org/2000/svg">
<path d="M33.9053 46.0873V20.9492" stroke="#9FA3EB" stroke-width="3" stroke-linecap="round" stroke-linejoin="round"/>
<path d="M23.4312 37.707C25.5028 37.707 27.5279 38.3213 29.2504 39.4723C30.9729 40.6232 32.3154 42.259 33.1081 44.1729C33.9009 46.0868 34.1083 48.1928 33.7042 50.2246C33.3 52.2564 32.3024 54.1228 30.8376 55.5876C29.3728 57.0524 27.5064 58.05 25.4746 58.4542C23.4428 58.8583 21.3368 58.6509 19.4229 57.8581C17.509 57.0654 15.8732 55.7229 14.7223 54.0004C13.5713 52.2779 12.957 50.2528 12.957 48.1812V46.4268" stroke="#9FA3EB" stroke-width="3" stroke-linecap="round" stroke-linejoin="round"/>
<path d="M19.2416 47.1334H17.1467C14.1758 47.1414 11.2981 46.0967 9.02411 44.1847C6.75015 42.2728 5.22697 39.6171 4.72481 36.6889C4.22265 33.7607 4.77398 30.7493 6.28098 28.1889C7.78798 25.6285 10.1532 23.6847 12.9571 22.7024V18.8531C12.9571 16.0752 14.0606 13.411 16.0249 11.4467C17.9892 9.48243 20.6533 8.37891 23.4313 8.37891C26.2092 8.37891 28.8733 9.48243 30.8376 11.4467C32.8019 13.411 33.9055 16.0752 33.9055 18.8531V48.1808" stroke="#9FA3EB" stroke-width="3" stroke-linecap="round" stroke-linejoin="round"/>
<path d="M23.4311 21.9961V24.0909C23.4311 26.0355 22.6586 27.9004 21.2836 29.2754C19.9086 30.6504 18.0437 31.4229 16.0991 31.4229" stroke="#9FA3EB" stroke-width="3" stroke-linecap="round" stroke-linejoin="round"/>
</svg>
