<svg width="85" height="85" viewBox="0 0 85 85" fill="none" xmlns="http://www.w3.org/2000/svg">
<path d="M15.9375 42.5V13.2812C15.9375 12.5768 16.2174 11.9011 16.7155 11.403C17.2136 10.9049 17.8893 10.625 18.5938 10.625H50.4688L69.0625 29.2188V42.5" stroke="#9FA3EB" stroke-width="3" stroke-linecap="round" stroke-linejoin="round"/>
<path d="M50.4668 10.625V29.2188H69.0605" stroke="#9FA3EB" stroke-width="3" stroke-linecap="round" stroke-linejoin="round"/>
<path d="M15.9375 66.4062H21.25C22.659 66.4062 24.0102 65.8465 25.0065 64.8503C26.0028 63.854 26.5625 62.5027 26.5625 61.0938C26.5625 59.6848 26.0028 58.3335 25.0065 57.3372C24.0102 56.341 22.659 55.7812 21.25 55.7812H15.9375V71.7188" stroke="#9FA3EB" stroke-width="3" stroke-linecap="round" stroke-linejoin="round"/>
<path d="M71.7188 55.7812H62.4219V71.7188" stroke="#9FA3EB" stroke-width="3" stroke-linecap="round" stroke-linejoin="round"/>
<path d="M70.3906 65.0781H62.4219" stroke="#9FA3EB" stroke-width="3" stroke-linecap="round" stroke-linejoin="round"/>
<path d="M42.5 71.7188C44.6134 71.7187 46.6403 70.8792 48.1348 69.3848C49.6292 67.8903 50.4687 65.8634 50.4688 63.75C50.4687 61.6366 49.6292 59.6097 48.1348 58.1152C46.6403 56.6208 44.6134 55.7813 42.5 55.7812H37.8516V71.7188H42.5Z" stroke="#9FA3EB" stroke-width="3" stroke-linecap="round" stroke-linejoin="round"/>
</svg>
