<svg width="131" height="34" viewBox="0 0 131 34" fill="none" xmlns="http://www.w3.org/2000/svg">
<g clip-path="url(#clip0_1685_6510)">
<path d="M49.109 12.2697H42.9951V9.28663C43.0229 5.82919 43.9437 4.54529 44.9584 3.8868C46.0008 3.20226 47.5853 3.14147 49.109 3.15711C49.7536 3.15711 50.273 2.6359 50.273 1.99305C50.273 1.35548 49.7536 0.835938 49.109 0.835938C47.5992 0.846069 45.5456 0.782384 43.7127 1.92184C41.8519 3.08937 40.6514 5.44875 40.6775 9.28663V12.2697H38.2886C37.6457 12.2697 37.1245 12.7926 37.1245 13.4303C37.1245 14.0714 37.6457 14.5943 38.2886 14.5943H40.6775V31.9907C40.6775 32.6249 41.1987 33.1478 41.838 33.1478C42.4809 33.1478 43.0003 32.6249 43.0003 31.9907C42.9986 20.8663 42.9951 20.0984 42.9951 14.5943H49.109C49.7501 14.5943 50.2765 14.0714 50.2765 13.4303C50.2765 12.7926 49.7501 12.2697 49.109 12.2697Z" fill="white"/>
<path d="M76.451 30.8322V30.8249C74.4965 30.8423 72.9172 30.7259 72.0225 30.0553C71.1364 29.4194 70.3476 28.0416 70.3372 24.5304V14.6239H76.451C77.0921 14.6239 77.6116 14.1043 77.6116 13.4633C77.6116 12.8187 77.0921 12.3027 76.451 12.3027H70.3372V1.99652C70.3372 1.3554 69.8177 0.835938 69.1732 0.835938C68.5338 0.835938 68.0178 1.3554 68.0178 1.99652V12.3027H65.6289C64.9878 12.3027 64.4648 12.8187 64.4648 13.4633C64.4648 14.1043 64.9878 14.6239 65.6289 14.6239H68.0178V24.5304C68.0039 28.3144 68.9004 30.6616 70.6708 31.9421C72.4325 33.1704 74.4965 33.1357 76.451 33.1461C77.0921 33.1461 77.6116 32.6336 77.6116 31.989C77.6116 31.3479 77.0921 30.8319 76.451 30.8319" fill="white"/>
<path d="M129.833 30.8362C127.327 30.8536 125.795 30.5756 125.05 29.8928C124.285 29.2621 123.71 27.8027 123.719 24.5886V14.6281H129.833C130.477 14.6281 130.993 14.1087 130.993 13.4676C130.993 12.823 130.477 12.307 129.833 12.307H123.719V1.99739C123.719 1.35279 123.201 0.84375 122.558 0.84375C121.915 0.84375 121.396 1.35279 121.396 1.99739V12.307H119.009C118.364 12.307 117.845 12.823 117.845 13.4676C117.845 14.1087 118.364 14.6281 119.009 14.6281H121.396V24.5886C121.403 27.9817 121.931 30.2229 123.535 31.6441C125.163 33.0183 127.26 33.14 129.833 33.1504C130.47 33.1504 130.993 32.6378 130.993 31.9968C130.993 31.3557 130.47 30.8397 129.833 30.8397" fill="white"/>
<path d="M56.144 31.9867V13.4279C56.144 12.7886 56.6687 12.2656 57.3046 12.2656C57.9474 12.2656 58.4687 12.7886 58.4687 13.4279V31.9867C58.4687 32.6208 57.9474 33.1438 57.3046 33.1438C56.6687 33.1438 56.144 32.6208 56.144 31.9867Z" fill="white"/>
<path d="M110.024 31.9867V13.4279C110.024 12.7886 110.536 12.2656 111.174 12.2656C111.815 12.2656 112.338 12.7886 112.338 13.4279V31.9867C112.338 32.6208 111.815 33.1438 111.174 33.1438C110.536 33.1438 110.024 32.6208 110.024 31.9867Z" fill="white"/>
<path d="M93.938 30.8736C89.4174 30.8634 85.7619 27.2146 85.7532 22.694C85.7619 18.175 89.4174 14.5196 93.938 14.5161C98.4587 14.5161 102.111 18.175 102.121 22.694C102.111 27.2146 98.4587 30.8631 93.938 30.8736ZM93.938 12.1915C90.63 12.1915 87.6782 13.7256 85.7532 16.118V1.99478C85.7532 1.35193 85.2355 0.835938 84.5961 0.835938C83.9498 0.835938 83.4355 1.35193 83.4355 1.99478V23.3941C83.4355 23.4758 83.4651 23.5505 83.4824 23.6287C83.9498 28.9867 88.4479 33.1947 93.938 33.1947C99.7374 33.1947 104.439 28.4951 104.439 22.694C104.439 16.8946 99.7374 12.1949 93.938 12.1915" fill="white"/>
<path d="M15.5535 17.2809C15.5535 18.3162 14.7142 19.1555 13.6788 19.1555C12.6435 19.1555 11.8042 18.3162 11.8042 17.2809C11.8042 16.2455 12.6435 15.4062 13.6788 15.4062C14.7142 15.4062 15.5535 16.2455 15.5535 17.2809Z" fill="white"/>
<path d="M21.0881 17.2809C21.0881 18.3162 20.2488 19.1555 19.2135 19.1555C18.1782 19.1555 17.3389 18.3162 17.3389 17.2809C17.3389 16.2455 18.1782 15.4062 19.2135 15.4062C20.2488 15.4062 21.0881 16.2455 21.0881 17.2809Z" fill="white"/>
<path d="M26.6228 17.2809C26.6228 18.3162 25.7835 19.1555 24.7482 19.1555C23.7128 19.1555 22.8735 18.3162 22.8735 17.2809C22.8735 16.2455 23.7128 15.4062 24.7482 15.4062C25.7835 15.4062 26.6228 16.2455 26.6228 17.2809Z" fill="white"/>
<path d="M10.0183 17.2809C10.0183 18.3162 9.17901 19.1555 8.14368 19.1555C7.10835 19.1555 6.26904 18.3162 6.26904 17.2809C6.26904 16.2455 7.10835 15.4062 8.14368 15.4062C9.17901 15.4062 10.0183 16.2455 10.0183 17.2809Z" fill="white"/>
<path d="M15.5535 28.3551C15.5535 29.3904 14.7142 30.2297 13.6788 30.2297C12.6435 30.2297 11.8042 29.3904 11.8042 28.3551C11.8042 27.3198 12.6435 26.4805 13.6788 26.4805C14.7142 26.4805 15.5535 27.3198 15.5535 28.3551Z" fill="#2EBEC0"/>
<path d="M15.5535 6.21446C15.5535 7.24978 14.7142 8.08907 13.6788 8.08907C12.6435 8.08907 11.8042 7.24978 11.8042 6.21446C11.8042 5.17914 12.6435 4.33984 13.6788 4.33984C14.7142 4.33984 15.5535 5.17914 15.5535 6.21446Z" fill="#2EBEC0"/>
<path d="M15.5535 23.0387C15.5535 24.074 14.7142 24.9133 13.6788 24.9133C12.6435 24.9133 11.8042 24.074 11.8042 23.0387C11.8042 22.0034 12.6435 21.1641 13.6788 21.1641C14.7142 21.1641 15.5535 22.0034 15.5535 23.0387Z" fill="#2EBEC0"/>
<path d="M21.0881 23.0387C21.0881 24.074 20.2488 24.9133 19.2135 24.9133C18.1782 24.9133 17.3389 24.074 17.3389 23.0387C17.3389 22.0034 18.1782 21.1641 19.2135 21.1641C20.2488 21.1641 21.0881 22.0034 21.0881 23.0387Z" fill="white"/>
<path d="M10.0183 23.0387C10.0183 24.074 9.17901 24.9133 8.14368 24.9133C7.10835 24.9133 6.26904 24.074 6.26904 23.0387C6.26904 22.0034 7.10835 21.1641 8.14368 21.1641C9.17901 21.1641 10.0183 22.0034 10.0183 23.0387Z" fill="#2EBEC0"/>
<path d="M15.5535 11.441C15.5535 12.4763 14.7142 13.3156 13.6788 13.3156C12.6435 13.3156 11.8042 12.4763 11.8042 11.441C11.8042 10.4057 12.6435 9.56641 13.6788 9.56641C14.7142 9.56641 15.5535 10.4057 15.5535 11.441Z" fill="#2EBEC0"/>
<path d="M21.0881 11.441C21.0881 12.4763 20.2488 13.3156 19.2135 13.3156C18.1782 13.3156 17.3389 12.4763 17.3389 11.441C17.3389 10.4057 18.1782 9.56641 19.2135 9.56641C20.2488 9.56641 21.0881 10.4057 21.0881 11.441Z" fill="white"/>
<path d="M10.0183 11.441C10.0183 12.4763 9.17901 13.3156 8.14368 13.3156C7.10835 13.3156 6.26904 12.4763 6.26904 11.441C6.26904 10.4057 7.10835 9.56641 8.14368 9.56641C9.17901 9.56641 10.0183 10.4057 10.0183 11.441Z" fill="#2EBEC0"/>
<path d="M4.49048 17.2809C4.49048 18.3162 3.65118 19.1555 2.61585 19.1555C1.58051 19.1555 0.741211 18.3162 0.741211 17.2809C0.741211 16.2455 1.58051 15.4062 2.61585 15.4062C3.65118 15.4062 4.49048 16.2455 4.49048 17.2809Z" fill="white"/>
<path d="M59.6264 5.95697C59.6264 7.2384 58.5876 8.27721 57.3061 8.27721C56.0247 8.27721 54.9858 7.2384 54.9858 5.95697C54.9858 4.67553 56.0247 3.63672 57.3061 3.63672C58.5876 3.63672 59.6264 4.67553 59.6264 5.95697Z" fill="#2EBEC0"/>
<path d="M113.501 5.95697C113.501 7.2384 112.463 8.27721 111.181 8.27721C109.9 8.27721 108.861 7.2384 108.861 5.95697C108.861 4.67553 109.9 3.63672 111.181 3.63672C112.463 3.63672 113.501 4.67553 113.501 5.95697Z" fill="#2EBEC0"/>
</g>
<defs>
<clipPath id="clip0_1685_6510">
<rect width="130.264" height="32.5661" fill="white" transform="translate(0.735352 0.71875)"/>
</clipPath>
</defs>
</svg>
