<svg width="44" height="44" viewBox="0 0 44 44" fill="none" xmlns="http://www.w3.org/2000/svg">
<path d="M17.8752 5.5V16.1219C17.8735 16.3691 17.8084 16.6117 17.6861 16.8266L6.75488 35.0453C6.63082 35.2531 6.56383 35.4901 6.56066 35.7321C6.5575 35.9741 6.61828 36.2127 6.73687 36.4237C6.85545 36.6347 7.02763 36.8107 7.23602 36.9338C7.4444 37.057 7.68159 37.1229 7.92363 37.125H36.0768C36.3188 37.1229 36.556 37.057 36.7644 36.9338C36.9728 36.8107 37.1449 36.6347 37.2635 36.4237C37.3821 36.2127 37.4429 35.9741 37.4397 35.7321C37.4366 35.4901 37.3696 35.2531 37.2455 35.0453L26.3143 16.8266C26.1919 16.6117 26.1268 16.3691 26.1252 16.1219V5.5" stroke="white" stroke-width="2" stroke-linecap="round" stroke-linejoin="round"/>
<path d="M15.125 5.5H28.875" stroke="white" stroke-width="2" stroke-linecap="round" stroke-linejoin="round"/>
<path d="M10.7598 28.3595C12.7879 26.8642 16.277 26.022 22.0004 28.8751C28.1363 31.9517 31.7113 30.7314 33.6707 29.0642" stroke="white" stroke-width="2" stroke-linecap="round" stroke-linejoin="round"/>
</svg>
