<svg width="24" height="25" viewBox="0 0 24 25" fill="none" xmlns="http://www.w3.org/2000/svg">
<path d="M3.73285 22.0123C3.73399 22.1443 3.76997 22.2737 3.83714 22.3873C3.9043 22.501 4.00029 22.5949 4.11538 22.6596C4.23048 22.7243 4.36061 22.7574 4.49262 22.7557C4.62464 22.754 4.75386 22.7174 4.86722 22.6498L20.5985 13.6404C20.7142 13.5789 20.811 13.4871 20.8785 13.3748C20.946 13.2625 20.9817 13.1339 20.9817 13.0029C20.9817 12.8718 20.946 12.7433 20.8785 12.631C20.811 12.5187 20.7142 12.4269 20.5985 12.3654L4.86722 3.356C4.75386 3.28833 4.62464 3.25179 4.49262 3.25006C4.36061 3.24834 4.23048 3.28149 4.11538 3.34617C4.00029 3.41086 3.9043 3.50477 3.83714 3.61844C3.76997 3.7321 3.73399 3.86148 3.73285 3.9935V22.0123Z" stroke="#9FA3EB" stroke-width="2" stroke-linecap="round" stroke-linejoin="round"/>
<path d="M3.95782 3.44922L16.4922 15.9836" stroke="#9FA3EB" stroke-width="2" stroke-linecap="round" stroke-linejoin="round"/>
<path d="M3.95782 22.5305L16.4922 9.99609" stroke="#9FA3EB" stroke-width="2" stroke-linecap="round" stroke-linejoin="round"/>
</svg>
