<svg width="53" height="45" viewBox="0 0 53 45" fill="none" xmlns="http://www.w3.org/2000/svg">
<path d="M5.05294 23.2804L7.71356 25.8989L13.4596 20.2658L10.8213 17.6473L9.614 16.4591C8.6526 15.5129 8.13836 14.2807 8.13836 12.9384C8.13836 11.7722 8.54081 10.716 9.23391 9.87986C10.173 8.71364 11.6039 7.9655 13.2137 7.9655C14.5775 7.9655 15.8296 8.4936 16.8133 9.43977L17.9983 10.562L20.6589 13.2025L26.4273 7.56942L23.7443 4.95093L22.537 3.80671C20.1447 1.45227 16.858 0 13.2137 0C5.90255 0 0 5.80909 0 12.9604C0 14.7428 0.35773 16.4371 1.02847 17.9994C1.69922 19.5617 2.66062 20.9479 3.86796 22.1142L5.05294 23.2804Z" fill="#EA4335"/>
<path d="M18.2217 26.8897L26.4271 18.8582L20.6587 13.2031L13.4594 20.2665L7.71338 25.8995L10.7988 28.9581L13.4594 31.5546L16.2318 28.8261" fill="#FBBC04"/>
<path d="M32.1509 38.6391L45.1186 25.8987L39.3502 20.2656L26.4048 32.984L19.2055 25.9207L13.4595 31.5537L20.6588 38.6391L20.6364 38.6611L26.4048 44.0081L32.1732 38.6391H32.1509Z" fill="#34A853"/>
<path d="M48.9417 22.1122C51.6247 19.4717 53.1674 15.423 52.7426 11.3302C52.1166 5.12505 46.8848 0.460175 40.5351 0.042096C36.533 -0.221954 32.8662 1.25232 30.2727 3.8048L20.6587 13.2006L26.4047 18.8556L36.0187 9.43786C37.1814 8.31565 38.7911 7.78755 40.4456 8.0516C42.592 8.38166 44.336 10.12 44.6266 12.2324C44.8502 13.8167 44.3136 15.357 43.1733 16.4792L39.3501 20.2639L45.1185 25.8969L48.9417 22.1122Z" fill="#4285F4"/>
</svg>
