<svg width="28" height="28" viewBox="0 0 28 28" fill="none" xmlns="http://www.w3.org/2000/svg">
<path d="M4.73975 24.0918C4.74103 24.2397 4.78132 24.3846 4.85655 24.5119C4.93177 24.6392 5.03928 24.7444 5.16818 24.8169C5.29709 24.8893 5.44284 24.9264 5.59069 24.9245C5.73855 24.9226 5.88328 24.8816 6.01025 24.8058L23.6292 14.7153C23.7588 14.6465 23.8673 14.5437 23.9429 14.4179C24.0185 14.2921 24.0584 14.1481 24.0584 14.0013C24.0584 13.8546 24.0185 13.7106 23.9429 13.5848C23.8673 13.459 23.7588 13.3562 23.6292 13.2873L6.01025 3.19685C5.88328 3.12106 5.73855 3.08013 5.59069 3.0782C5.44284 3.07626 5.29709 3.1134 5.16818 3.18584C5.03928 3.25828 4.93177 3.36347 4.85655 3.49078C4.78132 3.61808 4.74103 3.76298 4.73975 3.91085V24.0918Z" stroke="#4C48F4" stroke-width="2" stroke-linecap="round" stroke-linejoin="round"/>
<path d="M4.99121 3.30469L19.0297 17.3432" stroke="#4C48F4" stroke-width="2" stroke-linecap="round" stroke-linejoin="round"/>
<path d="M4.99121 24.6752L19.0297 10.6367" stroke="#4C48F4" stroke-width="2" stroke-linecap="round" stroke-linejoin="round"/>
</svg>
