<svg width="44" height="44" viewBox="0 0 44 44" fill="none" xmlns="http://www.w3.org/2000/svg">
<path d="M16.1553 10.5543C15.7443 9.7687 15.6528 8.85469 15.8998 8.00319C16.1468 7.15169 16.7133 6.42856 17.4809 5.98487C18.2485 5.54117 19.1578 5.41121 20.019 5.62215C20.8801 5.83308 21.6265 6.36859 22.1021 7.11681L27.2584 16.0371" stroke="white" stroke-width="2" stroke-linecap="round" stroke-linejoin="round"/>
<path d="M11.584 16.3621L8.83397 11.6012C8.42301 10.8156 8.33148 9.90156 8.57851 9.05006C8.82554 8.19856 9.39201 7.47544 10.1596 7.03174C10.9272 6.58804 11.8366 6.45809 12.6977 6.66902C13.5589 6.87996 14.3052 7.41546 14.7808 8.16369L20.6246 18.2871" stroke="white" stroke-width="2" stroke-linecap="round" stroke-linejoin="round"/>
<path d="M26.4685 28.4107C26.0156 27.6301 25.7212 26.7678 25.6022 25.8732C25.4832 24.9786 25.542 24.0694 25.7751 23.1976C26.0082 22.3257 26.4112 21.5085 26.9607 20.7927C27.5103 20.0769 28.1958 19.4766 28.9778 19.0263L27.2591 16.0357C26.8032 15.2448 26.6802 14.3052 26.9172 13.4236C27.1541 12.5421 27.7315 11.7907 28.5224 11.3349C29.3132 10.879 30.2528 10.756 31.1344 10.9929C32.016 11.2299 32.7673 11.8073 33.2231 12.5982L36.6606 18.5622C38.484 21.7212 38.9778 25.4751 38.0334 28.9982C37.0889 32.5212 34.7837 35.5248 31.6247 37.3482C28.4657 39.1715 24.7118 39.6653 21.1888 38.7209C17.6657 37.7765 14.6621 35.4712 12.8388 32.3122L5.62002 19.7997C5.39431 19.4081 5.24794 18.9759 5.18927 18.5277C5.13061 18.0795 5.16079 17.6242 5.27809 17.1877C5.515 16.3061 6.09241 15.5548 6.8833 15.0989C7.67418 14.6431 8.61375 14.5201 9.49532 14.757C10.3769 14.9939 11.1282 15.5713 11.5841 16.3622L15.3653 22.9107" stroke="white" stroke-width="2" stroke-linecap="round" stroke-linejoin="round"/>
<path d="M13.9391 41.25C11.6036 39.6392 9.65948 37.5247 8.25 35.0625" stroke="white" stroke-width="2" stroke-linecap="round" stroke-linejoin="round"/>
<path d="M30.25 5.32816C31.8189 5.32391 33.361 5.73513 34.7195 6.52004C36.078 7.30495 37.2045 8.43554 37.9844 9.79691" stroke="white" stroke-width="2" stroke-linecap="round" stroke-linejoin="round"/>
</svg>
