<svg width="53" height="58" viewBox="0 0 53 58" fill="none" xmlns="http://www.w3.org/2000/svg">
<path d="M36.6149 55.9938H25.4427C21.5221 55.9938 18.4952 52.5465 19.0023 48.6588C19.0604 48.2133 18.6594 47.8447 18.2203 47.9402L13.9314 48.8725C10.4821 49.6224 7.36135 46.6618 7.92851 43.1778C7.97749 42.8769 7.97109 42.5697 7.90962 42.2711L7.16584 38.6585C6.93571 37.5407 5.83478 36.828 4.72075 37.0755C3.00138 37.4576 1.63622 35.6311 2.48958 34.0903L6.1889 27.411C6.55665 26.747 6.77442 26.0104 6.8269 25.2532L7.03102 22.3081C7.62113 13.7936 13.1997 6.43771 21.2394 3.57289L21.7238 3.40028C26.0798 1.8481 30.8388 1.85137 35.1927 3.40955C45.1209 6.96273 50.5924 17.6066 47.704 27.7482L45.0009 37.2389C44.8458 37.7836 44.7671 38.3472 44.7671 38.9136V47.8416C44.7671 52.3439 41.1172 55.9938 36.6149 55.9938Z" stroke="#9FA3EB" stroke-width="3"/>
<line x1="9.85077" y1="11.5076" x2="47.6576" y2="15.3347" stroke="#9FA3EB" stroke-width="3"/>
<line x1="8.15107" y1="19.367" x2="47.9477" y2="23.3955" stroke="#9FA3EB" stroke-width="3"/>
<path d="M48 15H51C51.5523 15 52 15.4477 52 16V23C52 23.5523 51.5523 24 51 24H48V15Z" fill="#9FA3EB"/>
</svg>
