<svg width="44" height="44" viewBox="0 0 44 44" fill="none" xmlns="http://www.w3.org/2000/svg">
<path d="M22 38.5C31.1127 38.5 38.5 31.1127 38.5 22C38.5 12.8873 31.1127 5.5 22 5.5C12.8873 5.5 5.5 12.8873 5.5 22C5.5 31.1127 12.8873 38.5 22 38.5Z" stroke="white" stroke-width="2" stroke-linecap="round" stroke-linejoin="round"/>
<path d="M22 28.875C25.797 28.875 28.875 25.797 28.875 22C28.875 18.203 25.797 15.125 22 15.125C18.203 15.125 15.125 18.203 15.125 22C15.125 25.797 18.203 28.875 22 28.875Z" stroke="white" stroke-width="2" stroke-linecap="round" stroke-linejoin="round"/>
<path d="M17.1363 17.1344L10.3301 10.3281" stroke="white" stroke-width="2" stroke-linecap="round" stroke-linejoin="round"/>
<path d="M26.8643 17.1344L33.6705 10.3281" stroke="white" stroke-width="2" stroke-linecap="round" stroke-linejoin="round"/>
<path d="M26.8643 26.8672L33.6705 33.6734" stroke="white" stroke-width="2" stroke-linecap="round" stroke-linejoin="round"/>
<path d="M17.1363 26.8672L10.3301 33.6734" stroke="white" stroke-width="2" stroke-linecap="round" stroke-linejoin="round"/>
</svg>
