<svg width="222" height="56" viewBox="0 0 222 56" fill="none" xmlns="http://www.w3.org/2000/svg">
<ellipse cx="28.0303" cy="28" rx="28.0303" ry="28" fill="#4C48F4"/>
<mask id="mask0_1668_6854" style="mask-type:alpha" maskUnits="userSpaceOnUse" x="0" y="0" width="57" height="56">
<ellipse cx="28.0303" cy="28" rx="28.0303" ry="28" fill="#4C48F4"/>
</mask>
<g mask="url(#mask0_1668_6854)">
<path d="M3.7373 50.3987V46.3551L45.0949 -4.66797H52.3232L12.1579 44.8847H50.4602V50.3987H3.7373Z" fill="white"/>
</g>
<path d="M72.2152 41.4411C71.7383 41.4411 71.3373 41.2787 71.0121 40.9539C70.687 40.6291 70.5244 40.2285 70.5244 39.7521V17.7632C70.5244 17.2652 70.687 16.8646 71.0121 16.5614C71.3373 16.2366 71.7383 16.0742 72.2152 16.0742H78.1004C79.9646 16.0742 81.6554 16.3882 83.1728 17.0161C84.7119 17.6224 86.045 18.4994 87.1722 19.647C88.2994 20.773 89.1664 22.1047 89.7734 23.6421C90.3803 25.1794 90.6838 26.8792 90.6838 28.7414C90.6838 30.6036 90.3803 32.3142 89.7734 33.8733C89.1664 35.4106 88.2994 36.7532 87.1722 37.9008C86.045 39.0268 84.7119 39.9037 83.1728 40.5317C81.6554 41.138 79.9646 41.4411 78.1004 41.4411H72.2152ZM73.906 38.4529H78.1004C79.9213 38.4529 81.5254 38.0415 82.9127 37.2187C84.3217 36.3742 85.4272 35.2266 86.2292 33.7758C87.0313 32.3034 87.4323 30.6253 87.4323 28.7414C87.4323 26.8359 87.0313 25.1578 86.2292 23.707C85.4272 22.2562 84.3217 21.1194 82.9127 20.2966C81.5254 19.4738 79.9213 19.0624 78.1004 19.0624H73.906V38.4529Z" fill="white"/>
<path d="M97.2585 30.3329C97.2585 29.0337 97.5728 27.8753 98.2014 26.8576C98.8517 25.8182 99.7188 24.9954 100.803 24.3891C101.886 23.7828 103.079 23.4797 104.379 23.4797C105.68 23.4797 106.645 23.6962 107.273 24.1293C107.923 24.5407 108.173 25.0387 108.021 25.6233C107.956 25.9265 107.826 26.1647 107.631 26.3379C107.457 26.4895 107.251 26.5869 107.013 26.6302C106.775 26.6735 106.514 26.6627 106.233 26.5977C104.845 26.3162 103.599 26.2946 102.493 26.5328C101.388 26.771 100.51 27.2149 99.8597 27.8645C99.2311 28.5141 98.9167 29.3369 98.9167 30.3329H97.2585ZM97.291 41.4411C96.7707 41.4411 96.3697 41.3112 96.0879 41.0513C95.8061 40.7698 95.6652 40.3584 95.6652 39.8171V25.2985C95.6652 24.7789 95.8061 24.3783 96.0879 24.0968C96.3697 23.8153 96.7707 23.6745 97.291 23.6745C97.8329 23.6745 98.2339 23.8153 98.494 24.0968C98.7758 24.3566 98.9167 24.7572 98.9167 25.2985V39.8171C98.9167 40.3368 98.7758 40.7374 98.494 41.0189C98.2339 41.3004 97.8329 41.4411 97.291 41.4411Z" fill="white"/>
<path d="M118.24 41.571C116.484 41.571 114.934 41.1921 113.59 40.4342C112.247 39.6547 111.184 38.5937 110.404 37.2512C109.645 35.887 109.266 34.328 109.266 32.5741C109.266 30.7985 109.645 29.2394 110.404 27.8969C111.184 26.5328 112.247 25.4718 113.59 24.7139C114.934 23.9344 116.484 23.5446 118.24 23.5446C119.974 23.5446 121.513 23.9344 122.857 24.7139C124.201 25.4718 125.253 26.5328 126.011 27.8969C126.792 29.2394 127.182 30.7985 127.182 32.5741C127.182 34.328 126.802 35.887 126.044 37.2512C125.285 38.5937 124.234 39.6547 122.89 40.4342C121.546 41.1921 119.996 41.571 118.24 41.571ZM118.24 38.6478C119.367 38.6478 120.364 38.388 121.232 37.8683C122.099 37.3486 122.771 36.6341 123.247 35.7246C123.746 34.8152 123.995 33.765 123.995 32.5741C123.995 31.3831 123.746 30.3329 123.247 29.4235C122.771 28.4924 122.099 27.767 121.232 27.2473C120.364 26.7277 119.367 26.4678 118.24 26.4678C117.113 26.4678 116.116 26.7277 115.249 27.2473C114.382 27.767 113.699 28.4924 113.2 29.4235C112.702 30.3329 112.452 31.3831 112.452 32.5741C112.452 33.765 112.702 34.8152 113.2 35.7246C113.699 36.6341 114.382 37.3486 115.249 37.8683C116.116 38.388 117.113 38.6478 118.24 38.6478Z" fill="white"/>
<path d="M135.23 41.4411C134.883 41.4411 134.558 41.3437 134.255 41.1488C133.973 40.9322 133.778 40.6724 133.67 40.3693L128.857 25.9481C128.684 25.2769 128.684 24.7356 128.857 24.3241C129.052 23.8911 129.464 23.6745 130.093 23.6745C130.505 23.6745 130.841 23.7936 131.101 24.0318C131.383 24.2484 131.61 24.6273 131.784 25.1686L135.881 37.9657H134.743L138.612 24.9088C138.72 24.5407 138.905 24.2484 139.165 24.0318C139.425 23.7936 139.782 23.6745 140.238 23.6745C140.671 23.6745 141.018 23.7936 141.278 24.0318C141.56 24.2484 141.744 24.5407 141.831 24.9088L144.985 37.1862H144.497L148.334 25.1686C148.637 24.1726 149.201 23.6745 150.025 23.6745C150.632 23.6745 151.044 23.8911 151.26 24.3241C151.477 24.7356 151.466 25.2769 151.228 25.9481L146.416 40.3693C146.329 40.6724 146.145 40.9322 145.863 41.1488C145.581 41.3437 145.256 41.4411 144.887 41.4411C144.54 41.4411 144.215 41.3437 143.912 41.1488C143.608 40.9322 143.413 40.6724 143.327 40.3693L139.978 27.9944H140.303L136.791 40.3693C136.704 40.6724 136.509 40.9322 136.206 41.1488C135.924 41.3437 135.599 41.4411 135.23 41.4411Z" fill="white"/>
<path d="M156.48 40.824L154.269 38.8752L165.324 24.2917L167.503 26.2405L156.48 40.824ZM155.505 41.4411C154.486 41.4411 153.977 40.9322 153.977 39.9145C153.977 38.8968 154.486 38.388 155.505 38.388H166.592C167.611 38.388 168.121 38.8968 168.121 39.9145C168.121 40.9322 167.611 41.4411 166.592 41.4411H155.505ZM155.18 26.7277C154.161 26.7277 153.651 26.2188 153.651 25.2011C153.651 24.1834 154.161 23.6745 155.18 23.6745H166.267C167.286 23.6745 167.796 24.1834 167.796 25.2011C167.796 26.2188 167.286 26.7277 166.267 26.7277H155.18Z" fill="white"/>
<path d="M180.07 41.571C178.271 41.571 176.667 41.1921 175.258 40.4342C173.871 39.6547 172.776 38.5937 171.974 37.2512C171.194 35.887 170.803 34.328 170.803 32.5741C170.803 30.7985 171.172 29.2394 171.909 27.8969C172.668 26.5328 173.708 25.4718 175.03 24.7139C176.353 23.9344 177.87 23.5446 179.583 23.5446C181.273 23.5446 182.726 23.9236 183.94 24.6814C185.153 25.4176 186.075 26.4462 186.703 27.767C187.354 29.0662 187.679 30.5711 187.679 32.2817C187.679 32.6932 187.538 33.0396 187.256 33.3211C186.974 33.5809 186.617 33.7109 186.183 33.7109H173.079V31.1125H186.086L184.752 32.0219C184.731 30.9392 184.514 29.9757 184.102 29.1312C183.69 28.265 183.105 27.583 182.346 27.0849C181.588 26.5869 180.666 26.3379 179.583 26.3379C178.347 26.3379 177.285 26.6086 176.396 27.1499C175.529 27.6912 174.868 28.4383 174.413 29.391C173.957 30.3221 173.73 31.3831 173.73 32.5741C173.73 33.765 174.001 34.826 174.543 35.7571C175.085 36.6882 175.832 37.4244 176.786 37.9657C177.74 38.5071 178.835 38.7777 180.07 38.7777C180.742 38.7777 181.425 38.6586 182.119 38.4205C182.834 38.1606 183.408 37.8683 183.842 37.5435C184.167 37.3053 184.514 37.1862 184.882 37.1862C185.273 37.1646 185.609 37.2728 185.89 37.511C186.259 37.8358 186.454 38.1931 186.476 38.5829C186.497 38.9726 186.324 39.3082 185.955 39.5897C185.218 40.1744 184.297 40.6508 183.192 41.0189C182.108 41.387 181.067 41.571 180.07 41.571Z" fill="white"/>
<path d="M199.63 41.571C197.831 41.571 196.227 41.1921 194.818 40.4342C193.431 39.6547 192.336 38.5937 191.534 37.2512C190.754 35.887 190.363 34.328 190.363 32.5741C190.363 30.7985 190.732 29.2394 191.469 27.8969C192.228 26.5328 193.268 25.4718 194.59 24.7139C195.913 23.9344 197.43 23.5446 199.142 23.5446C200.833 23.5446 202.286 23.9236 203.499 24.6814C204.713 25.4176 205.635 26.4462 206.263 27.767C206.914 29.0662 207.239 30.5711 207.239 32.2817C207.239 32.6932 207.098 33.0396 206.816 33.3211C206.534 33.5809 206.177 33.7109 205.743 33.7109H192.639V31.1125H205.645L204.312 32.0219C204.291 30.9392 204.074 29.9757 203.662 29.1312C203.25 28.265 202.665 27.583 201.906 27.0849C201.148 26.5869 200.226 26.3379 199.142 26.3379C197.907 26.3379 196.845 26.6086 195.956 27.1499C195.089 27.6912 194.428 28.4383 193.973 29.391C193.517 30.3221 193.29 31.3831 193.29 32.5741C193.29 33.765 193.561 34.826 194.103 35.7571C194.644 36.6882 195.392 37.4244 196.346 37.9657C197.3 38.5071 198.395 38.7777 199.63 38.7777C200.302 38.7777 200.985 38.6586 201.679 38.4205C202.394 38.1606 202.968 37.8683 203.402 37.5435C203.727 37.3053 204.074 37.1862 204.442 37.1862C204.833 37.1646 205.169 37.2728 205.45 37.511C205.819 37.8358 206.014 38.1931 206.036 38.5829C206.057 38.9726 205.884 39.3082 205.515 39.5897C204.778 40.1744 203.857 40.6508 202.752 41.0189C201.668 41.387 200.627 41.571 199.63 41.571Z" fill="white"/>
</svg>
