<svg width="139" height="48" viewBox="0 0 139 48" fill="none" xmlns="http://www.w3.org/2000/svg">
<g clip-path="url(#clip0_1798_6893)">
<path fill-rule="evenodd" clip-rule="evenodd" d="M37.779 12.273C37.779 8.25617 34.5502 5.00027 30.5665 5C26.5827 5.00027 23.353 8.25617 23.353 12.273C23.3495 14.1603 24.0791 15.9752 25.388 17.335L23.538 20.144L17.59 10.955C17.4862 10.7948 17.3427 10.6641 17.1734 10.5757C17.0042 10.4873 16.815 10.4442 16.6242 10.4505C16.4333 10.4569 16.2474 10.5125 16.0844 10.6119C15.9214 10.7113 15.7869 10.8512 15.694 11.018L5.34098 29.58H1.36098C0.747976 29.58 0.250977 30.08 0.250977 30.698C0.250977 31.316 0.747977 31.816 1.35998 31.816H38.156C38.1673 31.8162 38.1786 31.8162 38.19 31.816H42.802C43.415 31.816 43.912 31.316 43.912 30.698C43.912 30.08 43.415 29.58 42.802 29.58H38.822L33.008 19.118C34.4096 18.6046 35.6193 17.6724 36.4728 16.4478C37.3264 15.2232 37.7824 13.7657 37.779 12.273ZM29.645 29.58L24.857 22.183L28.822 16.162L36.279 29.58H29.645ZM16.73 13.72L26.997 29.58H7.88498L16.73 13.72ZM34.6674 15.3861C35.3399 14.4878 35.7019 13.3951 35.699 12.273C35.699 9.414 33.401 7.097 30.566 7.097C27.731 7.097 25.432 9.414 25.432 12.273C25.4297 13.4575 25.8335 14.6071 26.576 15.53L27.978 13.4C28.0827 13.2411 28.2267 13.1119 28.396 13.0249C28.5652 12.9379 28.7541 12.8959 28.9443 12.9032C29.1344 12.9104 29.3195 12.9666 29.4817 13.0662C29.6439 13.1658 29.7776 13.3056 29.87 13.472L31.971 17.253C33.0485 16.9397 33.9949 16.2845 34.6674 15.3861Z" fill="#9FA3EB"/>
<path d="M8.76297 36.29C8.76297 35.673 9.25897 35.173 9.86997 35.173H34.291C34.902 35.173 35.398 35.673 35.398 36.29C35.398 36.906 34.902 37.406 34.29 37.406H9.86997C9.25897 37.406 8.76297 36.907 8.76297 36.29Z" fill="#9FA3EB"/>
<path d="M17.273 41.882C17.273 41.264 17.77 40.763 18.383 40.763H25.778C26.391 40.763 26.888 41.264 26.888 41.882C26.888 42.5 26.391 43 25.779 43H18.383C17.77 43 17.273 42.499 17.273 41.882Z" fill="#9FA3EB"/>
<path fill-rule="evenodd" clip-rule="evenodd" d="M120.277 21.871C119.295 20.621 117.824 19.948 115.93 19.948C112.946 19.948 109.881 22.476 109.881 26.734C109.881 30.992 112.946 33.52 115.93 33.52C117.824 33.52 119.295 32.86 120.277 31.597V32.655C120.277 35.1 118.805 36.584 116.135 36.584C114.541 36.584 113.028 36.061 111.707 35.251L110.671 37.683C112.047 38.672 114.186 39.208 116.135 39.208C120.495 39.208 123.138 36.667 123.138 32.531V20.291H120.277V21.871ZM112.81 26.734C112.81 24.509 114.254 22.654 116.665 22.654C118.968 22.654 120.522 24.427 120.522 26.734C120.522 29.042 118.968 30.814 116.665 30.814C114.254 30.814 112.81 28.947 112.81 26.734Z" fill="#9FA3EB"/>
<path fill-rule="evenodd" clip-rule="evenodd" d="M104.591 21.885C103.692 20.717 102.343 19.948 100.49 19.948C96.84 19.948 93.964 22.846 93.964 26.871C93.964 30.896 96.839 33.795 100.49 33.795C102.344 33.795 103.692 33.04 104.591 31.872V33.452H107.439V20.292H104.591V21.885ZM96.893 26.871C96.893 24.564 98.379 22.654 100.831 22.654C103.188 22.654 104.769 24.467 104.769 26.871C104.769 29.275 103.188 31.089 100.831 31.089C98.379 31.089 96.893 29.179 96.893 26.871Z" fill="#9FA3EB"/>
<path fill-rule="evenodd" clip-rule="evenodd" d="M138.25 26.858C138.237 22.751 135.73 19.948 132.078 19.948C128.236 19.948 125.579 22.751 125.579 26.872C125.579 31.048 128.345 33.796 132.255 33.796C134.231 33.796 136.029 33.316 137.623 31.942L136.206 29.894C135.13 30.759 133.74 31.282 132.432 31.282C130.579 31.282 128.931 30.292 128.549 27.929H138.196C138.223 27.6 138.25 27.229 138.25 26.858ZM128.563 25.745C128.863 23.822 129.993 22.503 132.023 22.503C133.836 22.503 135.021 23.698 135.334 25.745H128.563Z" fill="#9FA3EB"/>
<path d="M64.5825 27.9558L59.037 14.2191H54.309V33.4521H57.389V17.7771L62.96 31.5701H66.203L71.776 17.6261V33.4521H74.856V14.2191H70.127L64.5825 27.9558Z" fill="#9FA3EB"/>
<path d="M81.454 20.2921V33.4521H78.593V20.2921H81.454Z" fill="#9FA3EB"/>
<path d="M93.636 20.3191C93.636 20.3191 93.6359 20.319 93.636 20.3191V20.3191Z" fill="#9FA3EB"/>
<path d="M91.442 19.9491C92.3139 19.9491 92.982 20.0581 93.636 20.3191L92.954 23.1611C92.355 22.8451 91.483 22.6801 90.788 22.6801C88.976 22.6801 87.682 23.9721 87.682 26.2101V33.4501H84.834V20.2901H87.654V21.7751C88.512 20.5251 89.848 19.9491 91.442 19.9491Z" fill="#9FA3EB"/>
<path d="M80.009 13.7111C81.14 13.7111 82.026 14.6041 82.026 15.7441C82.026 16.8841 81.14 17.7501 80.009 17.7501C78.879 17.7501 78.019 16.8841 78.019 15.7441C78.019 14.6041 78.879 13.7111 80.009 13.7111Z" fill="#9FA3EB"/>
</g>
<defs>
<clipPath id="clip0_1798_6893">
<rect width="138" height="48" fill="white" transform="translate(0.25)"/>
</clipPath>
</defs>
</svg>
