<svg width="159" height="48" viewBox="0 0 159 48" fill="none" xmlns="http://www.w3.org/2000/svg">
<g clip-path="url(#clip0_1798_6895)">
<path d="M20.5844 37.3232C20.8447 37.5838 21.1977 37.7304 21.566 37.731C22.317 37.731 22.953 37.093 22.953 36.34V11.37C22.953 11.0017 22.8068 10.6484 22.5466 10.3878C22.2863 10.1272 21.9333 9.98051 21.565 9.97998C20.785 9.97998 20.178 10.617 20.178 11.37V36.341C20.178 36.7093 20.3242 37.0625 20.5844 37.3232Z" fill="#9FA3EB"/>
<path d="M9.133 25.247H15.783L15.784 25.246C16.1527 25.246 16.5062 25.0995 16.7669 24.8389C17.0276 24.5782 17.174 24.2246 17.174 23.856C17.174 23.4873 17.0276 23.1338 16.7669 22.8731C16.5062 22.6124 16.1527 22.466 15.784 22.466H9.134C8.353 22.466 7.746 23.074 7.746 23.857C7.746 24.2251 7.89204 24.5782 8.15206 24.8388C8.41209 25.0994 8.76487 25.2462 9.133 25.247Z" fill="#9FA3EB"/>
<path d="M27.348 25.247H34.026C34.778 25.247 35.385 24.638 35.385 23.856C35.385 23.4879 35.239 23.1348 34.9789 22.8742C34.7189 22.6136 34.3661 22.4668 33.998 22.466H27.348C26.567 22.466 25.96 23.074 25.96 23.857C25.96 24.2253 26.1062 24.5785 26.3664 24.8392C26.6267 25.0998 26.9797 25.2465 27.348 25.247Z" fill="#9FA3EB"/>
<path fill-rule="evenodd" clip-rule="evenodd" d="M0.75 23.856C0.75 35.356 10.088 44.712 21.566 44.712C33.044 44.712 42.382 35.356 42.382 23.856C42.382 12.356 33.044 3 21.566 3C10.088 3 0.75 12.356 0.75 23.856ZM3.526 23.856C3.526 13.891 11.621 5.781 21.566 5.781C31.512 5.781 39.606 13.891 39.606 23.856C39.606 33.821 31.512 41.931 21.566 41.931C11.621 41.931 3.526 33.821 3.526 23.856Z" fill="#9FA3EB"/>
<path d="M56.173 15.687V18.178H60.22V32.053H63.054V18.178H67.13V15.687H56.173Z" fill="#9FA3EB"/>
<path d="M72.941 22.639C73.3869 22.6382 73.832 22.677 74.271 22.755V20.235L74.2519 20.2331C73.9692 20.2047 73.6835 20.176 73.26 20.176C71.727 20.176 70.57 21.191 70.05 22.176H69.992V20.554H67.361V32.024H70.051V26.231C70.051 23.827 71.12 22.639 72.941 22.639Z" fill="#9FA3EB"/>
<path fill-rule="evenodd" clip-rule="evenodd" d="M87.166 32.024V20.553H84.564V22.117H84.506C83.812 21.219 82.655 20.206 80.747 20.206C77.625 20.206 75.052 22.639 75.052 26.289C75.052 30.402 77.972 32.459 80.545 32.459C82.453 32.459 83.697 31.561 84.477 30.576H84.535V32.024H87.166ZM84.65 26.346C84.65 28.548 83.002 30.084 81.239 30.084C78.868 30.084 77.769 28.2 77.769 26.289C77.769 24.406 78.897 22.494 81.268 22.494C83.147 22.494 84.65 24.029 84.65 26.346Z" fill="#9FA3EB"/>
<path d="M92.92 20.553H90.26L90.259 32.053H92.948V25.97C92.948 23.74 94.104 22.552 95.781 22.552C97.314 22.552 98.238 23.594 98.238 25.564V32.024H100.928V25.42C100.928 21.741 98.846 20.177 96.475 20.177C95.203 20.177 93.873 20.698 92.977 22.002H92.92V20.553Z" fill="#9FA3EB"/>
<path d="M107.519 22.118C108.3 22.118 108.936 22.668 109.052 23.508L111.48 23.507C111.191 21.625 109.89 20.177 107.432 20.177C105.004 20.177 103.529 21.567 103.529 23.45C103.529 25.246 104.628 26.318 106.768 27.013C108.676 27.65 109.167 28.201 109.167 29.069C109.167 29.852 108.589 30.489 107.577 30.489C106.392 30.489 105.813 29.765 105.698 28.809H103.211C103.414 30.952 104.773 32.459 107.519 32.459C110.15 32.459 111.74 30.981 111.74 28.867C111.74 27.245 110.873 25.97 108.415 25.188C106.421 24.522 106.074 24.029 106.074 23.334C106.074 22.697 106.594 22.118 107.519 22.118Z" fill="#9FA3EB"/>
<path d="M117.06 15.281H114.082V18.004H117.06V15.281Z" fill="#9FA3EB"/>
<path d="M116.915 20.553H114.227V32.053H116.915V20.553Z" fill="#9FA3EB"/>
<path d="M123.68 22.118C124.461 22.118 125.097 22.668 125.213 23.508L127.641 23.507C127.352 21.625 126.051 20.177 123.594 20.177C121.165 20.177 119.691 21.567 119.691 23.45C119.691 25.246 120.789 26.318 122.929 27.013C124.837 27.65 125.328 28.201 125.328 29.069C125.328 29.852 124.75 30.489 123.738 30.489C122.553 30.489 121.975 29.765 121.859 28.809H119.373C119.575 30.952 120.934 32.459 123.68 32.459C126.311 32.459 127.901 30.981 127.901 28.867C127.901 27.245 127.034 25.97 124.577 25.188C122.582 24.522 122.235 24.029 122.235 23.334C122.235 22.697 122.755 22.118 123.68 22.118Z" fill="#9FA3EB"/>
<path d="M130.503 20.553H129.058V22.813H130.503V28.085C130.503 30.431 131.255 32.169 134.117 32.169C134.782 32.169 135.534 32.082 136.141 31.908V29.736C135.736 29.852 135.216 29.939 134.753 29.939C133.655 29.939 133.163 29.504 133.163 27.94V22.813H136.054V20.553H133.192V16.875H130.503V20.553Z" fill="#9FA3EB"/>
<path fill-rule="evenodd" clip-rule="evenodd" d="M149.498 26.289C149.498 22.813 146.954 20.177 143.369 20.177C139.9 20.177 137.24 22.726 137.24 26.289C137.24 29.765 139.871 32.459 143.369 32.459C146.925 32.459 149.498 29.678 149.498 26.289ZM146.78 26.289C146.78 28.432 145.393 30.054 143.369 30.054C141.519 30.054 139.957 28.49 139.957 26.289C139.957 24.145 141.316 22.552 143.369 22.552C145.479 22.552 146.78 24.261 146.78 26.289Z" fill="#9FA3EB"/>
<path d="M154.53 26.231C154.53 23.827 155.599 22.639 157.421 22.639C157.867 22.6382 158.312 22.677 158.751 22.755V20.235L158.73 20.2329C158.447 20.2045 158.162 20.176 157.739 20.176C156.206 20.176 155.05 21.191 154.53 22.176H154.472V20.554H151.841V32.024H154.53V26.231Z" fill="#9FA3EB"/>
</g>
<defs>
<clipPath id="clip0_1798_6895">
<rect width="158" height="48" fill="white" transform="translate(0.75)"/>
</clipPath>
</defs>
</svg>
