<svg width="222" height="56" viewBox="0 0 222 56" fill="none" xmlns="http://www.w3.org/2000/svg">
<ellipse cx="28.0303" cy="28" rx="28.0303" ry="28" fill="#4C48F4"/>
<mask id="mask0_1916_4110" style="mask-type:alpha" maskUnits="userSpaceOnUse" x="0" y="0" width="57" height="56">
<ellipse cx="28.0303" cy="28" rx="28.0303" ry="28" fill="#4C48F4"/>
</mask>
<g mask="url(#mask0_1916_4110)">
<path d="M3.7373 50.3987V46.3551L45.0949 -4.66797H52.3232L12.1579 44.8847H50.4602V50.3987H3.7373Z" fill="white"/>
</g>
<path d="M78.6584 41.3673C77.3854 41.3673 76.1859 41.1415 75.0598 40.6899C73.9582 40.2146 72.9913 39.5729 72.159 38.7649C71.3511 37.9568 70.7024 37.018 70.2128 35.9485C69.7477 34.8552 69.5151 33.7026 69.5151 32.4905C69.5151 31.2546 69.7477 30.1019 70.2128 29.0324C70.7024 27.9392 71.3511 26.9885 72.159 26.1804C72.9913 25.3724 73.9582 24.7426 75.0598 24.291C76.1859 23.8157 77.3854 23.578 78.6584 23.578V26.2517C77.7771 26.2517 76.9448 26.4181 76.1614 26.7508C75.3781 27.0598 74.6926 27.4995 74.1051 28.0699C73.5421 28.6165 73.0892 29.2701 72.7465 30.0306C72.4282 30.7912 72.2691 31.6111 72.2691 32.4905C72.2691 33.3461 72.4282 34.1541 72.7465 34.9147C73.0892 35.6752 73.5421 36.3407 74.1051 36.9111C74.6926 37.4577 75.3781 37.8974 76.1614 38.2301C76.9448 38.5391 77.7771 38.6936 78.6584 38.6936C79.5642 38.6936 80.4087 38.5391 81.1921 38.2301C81.9754 37.8974 82.6486 37.4577 83.2117 36.9111C83.7992 36.3407 84.2521 35.6752 84.5703 34.9147C84.913 34.1541 85.0844 33.3461 85.0844 32.4905V14.7012H87.8384V32.4905C87.8384 33.7026 87.5936 34.8552 87.104 35.9485C86.6389 37.018 85.9901 37.9568 85.1578 38.7649C84.3255 39.5729 83.3463 40.2146 82.2202 40.6899C81.1186 41.1415 79.9314 41.3673 78.6584 41.3673Z" fill="white"/>
<path d="M99.7061 26.2874C98.8248 26.2874 97.9925 26.4538 97.2091 26.7865C96.4258 27.0955 95.7403 27.5351 95.1528 28.1055C94.5898 28.6522 94.1369 29.3058 93.7942 30.0663C93.4759 30.8268 93.3168 31.6349 93.3168 32.4905V41.3316H90.5995V32.4905C90.5995 31.2784 90.8321 30.1376 91.2972 29.0681C91.7868 27.9986 92.4478 27.0598 93.2801 26.2517C94.1124 25.4437 95.0794 24.8139 96.181 24.3623C97.2826 23.887 98.4576 23.6493 99.7061 23.6493V26.2874Z" fill="white"/>
<path d="M111.757 23.578C113.006 23.578 114.181 23.8157 115.282 24.291C116.409 24.7426 117.388 25.3724 118.22 26.1804C119.052 26.9885 119.701 27.9392 120.166 29.0324C120.656 30.1019 120.901 31.2427 120.901 32.4548C120.901 33.6907 120.656 34.8552 120.166 35.9485C119.701 37.018 119.052 37.9568 118.22 38.7649C117.388 39.5491 116.409 40.1671 115.282 40.6186C114.181 41.0702 113.006 41.296 111.757 41.296V38.6223C112.639 38.6223 113.471 38.4678 114.254 38.1588C115.038 37.8261 115.711 37.3864 116.274 36.8398C116.861 36.2694 117.314 35.6158 117.633 34.879C117.975 34.1185 118.147 33.3104 118.147 32.4548C118.147 31.5992 117.975 30.7912 117.633 30.0306C117.314 29.2701 116.861 28.6165 116.274 28.0699C115.711 27.4995 115.038 27.0598 114.254 26.7508C113.471 26.4181 112.639 26.2517 111.757 26.2517C110.876 26.2517 110.044 26.4181 109.26 26.7508C108.502 27.0598 107.828 27.4995 107.241 28.0699C106.678 28.6165 106.225 29.2701 105.882 30.0306C105.564 30.7912 105.405 31.5992 105.405 32.4548H102.651C102.651 31.2427 102.883 30.1019 103.349 29.0324C103.838 27.9392 104.499 26.9885 105.331 26.1804C106.164 25.3724 107.131 24.7426 108.232 24.291C109.334 23.8157 110.509 23.578 111.757 23.578Z" fill="white"/>
<path d="M147.603 41.2247H144.519L138.717 29.7811L132.805 41.2247V41.4029L123.735 23.6137H126.82L132.805 35.4138V35.2355L138.607 23.685V23.6137H138.717V23.7919L147.603 41.2247Z" fill="white"/>
<path d="M150.269 41.2603V39.2996L170.649 14.5586H174.211L154.419 38.5866H173.293V41.2603H150.269Z" fill="white"/>
<path d="M186.093 41.4386C184.82 41.4386 183.62 41.2128 182.494 40.7612C181.393 40.2859 180.426 39.6442 179.593 38.8362C178.761 38.0281 178.1 37.0893 177.611 36.0198C177.145 34.9265 176.913 33.762 176.913 32.5261C176.913 31.314 177.145 30.1732 177.611 29.1037C178.1 28.0105 178.761 27.0598 179.593 26.2517C180.426 25.4437 181.393 24.802 182.494 24.3267C183.62 23.8513 184.82 23.6137 186.093 23.6137C187.341 23.6137 188.516 23.8513 189.618 24.3267C190.744 24.802 191.723 25.4437 192.556 26.2517C193.388 27.0598 194.049 28.0105 194.538 29.1037C195.028 30.1732 195.273 31.314 195.273 32.5261V34.2373H186.093V31.5636H192.519C192.519 30.8506 192.347 30.1732 192.005 29.5315C191.686 28.8898 191.234 28.3313 190.646 27.856C190.059 27.3807 189.373 27.0004 188.59 26.7152C187.806 26.43 186.974 26.2874 186.093 26.2874C185.187 26.2874 184.343 26.4538 183.559 26.7865C182.776 27.0955 182.09 27.5351 181.503 28.1055C180.94 28.6759 180.487 29.3414 180.144 30.1019C179.826 30.8625 179.667 31.6705 179.667 32.5261C179.667 33.4055 179.826 34.2254 180.144 34.986C180.487 35.7465 180.94 36.412 181.503 36.9824C182.09 37.529 182.776 37.9687 183.559 38.3014C184.343 38.6104 185.187 38.7649 186.093 38.7649V41.4386Z" fill="white"/>
<path d="M207.214 41.4386C205.941 41.4386 204.741 41.2128 203.615 40.7612C202.514 40.2859 201.547 39.6442 200.715 38.8362C199.882 38.0281 199.221 37.0893 198.732 36.0198C198.267 34.9265 198.034 33.762 198.034 32.5261C198.034 31.314 198.267 30.1732 198.732 29.1037C199.221 28.0105 199.882 27.0598 200.715 26.2517C201.547 25.4437 202.514 24.802 203.615 24.3267C204.741 23.8513 205.941 23.6137 207.214 23.6137C208.462 23.6137 209.637 23.8513 210.739 24.3267C211.865 24.802 212.844 25.4437 213.677 26.2517C214.509 27.0598 215.17 28.0105 215.66 29.1037C216.149 30.1732 216.394 31.314 216.394 32.5261V34.2373H207.214V31.5636H213.64C213.64 30.8506 213.469 30.1732 213.126 29.5315C212.808 28.8898 212.355 28.3313 211.767 27.856C211.18 27.3807 210.494 27.0004 209.711 26.7152C208.928 26.43 208.095 26.2874 207.214 26.2874C206.308 26.2874 205.464 26.4538 204.68 26.7865C203.897 27.0955 203.211 27.5351 202.624 28.1055C202.061 28.6759 201.608 29.3414 201.265 30.1019C200.947 30.8625 200.788 31.6705 200.788 32.5261C200.788 33.4055 200.947 34.2254 201.265 34.986C201.608 35.7465 202.061 36.412 202.624 36.9824C203.211 37.529 203.897 37.9687 204.68 38.3014C205.464 38.6104 206.308 38.7649 207.214 38.7649V41.4386Z" fill="white"/>
</svg>
