<svg width="189" height="48" viewBox="0 0 189 48" fill="none" xmlns="http://www.w3.org/2000/svg">
<path fill-rule="evenodd" clip-rule="evenodd" d="M38.7457 16.0646L46.3417 20.4503C46.123 18.6471 45.2452 16.9417 43.8094 15.7147H47.8748C46.5248 13.9172 44.375 12.7545 41.9545 12.7545C41.7396 12.7545 41.5266 12.7637 41.3165 12.7816L46.8351 9.59585C44.7672 8.71428 42.3235 8.78209 40.2267 9.99273C39.2014 10.5845 38.3718 11.3847 37.7599 12.3087C37.148 11.3847 36.3174 10.5845 35.2921 9.99273C33.1953 8.78209 30.7526 8.71428 28.6847 9.59585L34.2023 12.7816C33.9932 12.7637 33.7802 12.7545 33.5663 12.7545C31.1448 12.7545 28.995 13.9172 27.645 15.7147H31.7094C30.2746 16.9417 29.3968 18.6471 29.1781 20.4505L36.7722 16.0658V36.436H31.8385V21.1934L26.7433 24.1352L27.2191 20.213C27.3243 19.3454 27.5503 18.4949 27.8904 17.6883H24.8091L4 22.8906L4.47863 24.8051L8.157 23.8855V36.436H4.21007V38.4095H47.6261V36.436H38.7457V16.0646ZM27.8916 26.5688V36.436H21.9712V26.5688H27.8916ZM15.0641 30.5157C16.154 30.5157 17.0376 29.6322 17.0376 28.5423C17.0376 27.4524 16.154 26.5688 15.0641 26.5688C13.9742 26.5688 13.0907 27.4524 13.0907 28.5423C13.0907 29.6322 13.9742 30.5157 15.0641 30.5157Z" fill="#9FA3EB"/>
<path d="M63.2666 35.6415H66.9846L70.0868 24.7006L73.2128 35.6415H76.9308L81.5723 19.0645H78.1385L74.9652 31.3551L71.484 19.0645H68.6896L65.2321 31.3551L62.0588 19.0645H58.625L63.2666 35.6415Z" fill="#9FA3EB"/>
<path fill-rule="evenodd" clip-rule="evenodd" d="M87.5508 35.973C91.032 35.973 93.8264 33.2497 93.8264 29.7211C93.8264 26.1926 91.032 23.4692 87.5508 23.4692C84.0696 23.4692 81.2989 26.1926 81.2989 29.7211C81.2989 33.2497 84.0696 35.973 87.5508 35.973ZM87.5508 32.9892C85.751 32.9892 84.3538 31.6393 84.3538 29.7211C84.3538 27.8029 85.751 26.4531 87.5508 26.4531C89.3743 26.4531 90.7715 27.8029 90.7715 29.7211C90.7715 31.6393 89.3743 32.9892 87.5508 32.9892Z" fill="#9FA3EB"/>
<path d="M99.0304 23.8006V25.8373C99.6461 24.2269 101.138 23.5638 102.63 23.5638V26.974C101.043 26.7845 99.0304 27.495 99.0304 29.9815V35.6414H95.9755V23.8006H99.0304Z" fill="#9FA3EB"/>
<path d="M115.334 35.6415L110.432 29.6501L115.192 23.8007H111.545L107.472 29.0107V19.0645H104.417V35.6415H107.472V30.2658L111.782 35.6415H115.334Z" fill="#9FA3EB"/>
<path d="M122.496 35.9733C124.817 35.9733 126.83 34.7418 127.848 32.8947L125.196 31.3791C124.722 32.35 123.704 32.942 122.472 32.942C120.649 32.942 119.299 31.5922 119.299 29.7214C119.299 27.8268 120.649 26.477 122.472 26.477C123.68 26.477 124.698 27.0927 125.172 28.0637L127.801 26.5244C126.83 24.7009 124.817 23.4694 122.496 23.4694C118.896 23.4694 116.244 26.1928 116.244 29.7214C116.244 33.2499 118.896 35.9733 122.496 35.9733Z" fill="#9FA3EB"/>
<path fill-rule="evenodd" clip-rule="evenodd" d="M138.278 25.1982V23.801H141.333V35.6417H138.278V34.2445C137.425 35.3102 136.146 35.9733 134.418 35.9733C131.268 35.9733 128.663 33.2499 128.663 29.7214C128.663 26.1928 131.268 23.4694 134.418 23.4694C136.146 23.4694 137.425 24.1325 138.278 25.1982ZM131.718 29.7214C131.718 31.7106 133.115 33.0604 134.986 33.0604C136.881 33.0604 138.278 31.7106 138.278 29.7214C138.278 27.7321 136.881 26.3823 134.986 26.3823C133.115 26.3823 131.718 27.7321 131.718 29.7214Z" fill="#9FA3EB"/>
<path d="M150.876 26.7375V23.801H148.2V20.4856L145.145 21.4092V23.801H143.085V26.7375H145.145V31.6632C145.145 34.8602 146.589 36.1154 150.876 35.6417V32.871C149.123 32.9657 148.2 32.942 148.2 31.6632V26.7375H150.876Z" fill="#9FA3EB"/>
<path d="M156.44 20.5093C156.44 21.5276 155.587 22.3801 154.545 22.3801C153.527 22.3801 152.674 21.5276 152.674 20.5093C152.674 19.491 153.527 18.6147 154.545 18.6147C155.587 18.6147 156.44 19.491 156.44 20.5093Z" fill="#9FA3EB"/>
<path d="M156.085 35.6417H153.03V23.801H156.085V35.6417Z" fill="#9FA3EB"/>
<path fill-rule="evenodd" clip-rule="evenodd" d="M164.517 35.9733C167.998 35.9733 170.792 33.2499 170.792 29.7214C170.792 26.1928 167.998 23.4694 164.517 23.4694C161.036 23.4694 158.265 26.1928 158.265 29.7214C158.265 33.2499 161.036 35.9733 164.517 35.9733ZM164.517 32.9894C162.717 32.9894 161.32 31.6396 161.32 29.7214C161.32 27.8032 162.717 26.4533 164.517 26.4533C166.34 26.4533 167.737 27.8032 167.737 29.7214C167.737 31.6396 166.34 32.9894 164.517 32.9894Z" fill="#9FA3EB"/>
<path d="M175.996 25.1272C176.707 24.0615 177.938 23.4694 179.525 23.4694C182.035 23.4694 184.001 25.2219 184.001 28.3715V35.6417H180.946V28.7504C180.946 27.1401 179.975 26.3112 178.601 26.3112C177.109 26.3112 175.996 27.1874 175.996 29.2477V35.6417H172.941V23.801H175.996V25.1272Z" fill="#9FA3EB"/>
</svg>
