<svg width="57" height="56" viewBox="0 0 57 56" fill="none" xmlns="http://www.w3.org/2000/svg">
<path d="M42.6133 47.25V8.75C42.6133 6.817 41.0463 5.25 39.1133 5.25L18.1133 5.25C16.1803 5.25 14.6133 6.817 14.6133 8.75L14.6133 47.25C14.6133 49.183 16.1803 50.75 18.1133 50.75H39.1133C41.0463 50.75 42.6133 49.183 42.6133 47.25Z" stroke="#9FA3EB" stroke-width="2" stroke-linecap="round" stroke-linejoin="round"/>
<path d="M28.4883 15.5C29.869 15.5 30.9883 14.3807 30.9883 13C30.9883 11.6193 29.869 10.5 28.4883 10.5C27.1076 10.5 25.9883 11.6193 25.9883 13C25.9883 14.3807 27.1076 15.5 28.4883 15.5Z" fill="#9FA3EB"/>
</svg>
