<svg width="73" height="73" viewBox="0 0 73 73" fill="none" xmlns="http://www.w3.org/2000/svg">
<path d="M61.0537 32.0335V18.6406" stroke="white" stroke-width="3" stroke-linecap="round" stroke-linejoin="round"/>
<path d="M67.7498 25.3359H54.3569" stroke="white" stroke-width="3" stroke-linecap="round" stroke-linejoin="round"/>
<path d="M47.6606 7.47656V16.4051" stroke="white" stroke-width="3" stroke-linecap="round" stroke-linejoin="round"/>
<path d="M52.1249 11.9453H43.1963" stroke="white" stroke-width="3" stroke-linecap="round" stroke-linejoin="round"/>
<path d="M61.2488 43.3627C56.8664 44.5916 52.2358 44.6319 47.8327 43.4794C43.4295 42.3269 39.4125 40.0232 36.1941 36.8048C32.9757 33.5864 30.672 29.5693 29.5194 25.1662C28.3669 20.763 28.4072 16.1324 29.6361 11.75C25.3154 12.9526 21.3852 15.2662 18.237 18.4605C15.0887 21.6547 12.8323 25.618 11.6925 29.9557C10.5526 34.2934 10.5692 38.854 11.7404 43.1833C12.9117 47.5126 15.1967 51.4594 18.3681 54.6308C21.5394 57.8021 25.4863 60.0872 29.8156 61.2584C34.1449 62.4297 38.7055 62.4462 43.0431 61.3064C47.3808 60.1665 51.3441 57.9101 54.5384 54.7619C57.7326 51.6136 60.0462 47.6834 61.2488 43.3627Z" stroke="white" stroke-width="3" stroke-linecap="round" stroke-linejoin="round"/>
</svg>
