<svg width="44" height="44" viewBox="0 0 44 44" fill="none" xmlns="http://www.w3.org/2000/svg">
<path d="M37.623 13.25C38.7736 14.3979 39.6865 15.7615 40.3093 17.2627C40.9321 18.7639 41.2527 20.3732 41.2527 21.9984C41.2527 23.6237 40.9321 25.233 40.3093 26.7342C39.6865 28.2354 38.7736 29.599 37.623 30.7469" stroke="white" stroke-width="2" stroke-linecap="round" stroke-linejoin="round"/>
<path d="M13.75 28.875H5.5C5.13533 28.875 4.78559 28.7301 4.52773 28.4723C4.26987 28.2144 4.125 27.8647 4.125 27.5V16.5C4.125 16.1353 4.26987 15.7856 4.52773 15.5277C4.78559 15.2699 5.13533 15.125 5.5 15.125H13.75L26.125 5.5V38.5L13.75 28.875Z" stroke="white" stroke-width="2" stroke-linecap="round" stroke-linejoin="round"/>
<path d="M13.75 15.125V28.875" stroke="white" stroke-width="2" stroke-linecap="round" stroke-linejoin="round"/>
<path d="M32.7598 18.1172C33.2711 18.6266 33.6769 19.2319 33.9537 19.8985C34.2306 20.5651 34.3731 21.2798 34.3731 22.0016C34.3731 22.7233 34.2306 23.438 33.9537 24.1046C33.6769 24.7712 33.2711 25.3765 32.7598 25.8859" stroke="white" stroke-width="2" stroke-linecap="round" stroke-linejoin="round"/>
</svg>
