<svg width="136" height="24" viewBox="0 0 136 24" fill="none" xmlns="http://www.w3.org/2000/svg">
<path d="M12.4123 17.8762L17.1373 20.8762C17.7466 21.2606 18.4966 20.6887 18.3185 19.9856L16.9498 14.6043C16.9127 14.4552 16.9186 14.2986 16.9667 14.1526C17.0148 14.0067 17.1032 13.8773 17.2216 13.7793L21.4591 10.2449C22.0123 9.78557 21.731 8.85744 21.0091 8.81057L15.4779 8.45432C15.327 8.44554 15.1819 8.39298 15.0603 8.30308C14.9388 8.21318 14.8461 8.08981 14.7935 7.94807L12.731 2.75432C12.6764 2.60423 12.5769 2.47457 12.4461 2.38295C12.3153 2.29133 12.1595 2.24219 11.9998 2.24219C11.84 2.24219 11.6842 2.29133 11.5534 2.38295C11.4226 2.47457 11.3231 2.60423 11.2685 2.75432L9.206 7.94807C9.15344 8.08981 9.06072 8.21318 8.93918 8.30308C8.81764 8.39298 8.67255 8.44554 8.52163 8.45432L2.99038 8.81057C2.2685 8.85744 1.98725 9.78557 2.54038 10.2449L6.77788 13.7793C6.89632 13.8773 6.98468 14.0067 7.03278 14.1526C7.08088 14.2986 7.08676 14.4552 7.04975 14.6043L5.78413 19.5918C5.5685 20.4356 6.4685 21.1199 7.19038 20.6606L11.5873 17.8762C11.7106 17.7978 11.8536 17.7562 11.9998 17.7562C12.1459 17.7562 12.289 17.7978 12.4123 17.8762Z" fill="#33BC8B"/>
<path d="M40.4123 17.8762L45.1373 20.8762C45.7466 21.2606 46.4966 20.6887 46.3185 19.9856L44.9498 14.6043C44.9127 14.4552 44.9186 14.2986 44.9667 14.1526C45.0148 14.0067 45.1032 13.8773 45.2216 13.7793L49.4591 10.2449C50.0123 9.78557 49.731 8.85744 49.0091 8.81057L43.4779 8.45432C43.327 8.44554 43.1819 8.39298 43.0603 8.30308C42.9388 8.21318 42.8461 8.08981 42.7935 7.94807L40.731 2.75432C40.6764 2.60423 40.5769 2.47457 40.4461 2.38295C40.3153 2.29133 40.1595 2.24219 39.9998 2.24219C39.84 2.24219 39.6842 2.29133 39.5534 2.38295C39.4226 2.47457 39.3231 2.60423 39.2685 2.75432L37.206 7.94807C37.1534 8.08981 37.0607 8.21318 36.9392 8.30308C36.8176 8.39298 36.6725 8.44554 36.5216 8.45432L30.9904 8.81057C30.2685 8.85744 29.9873 9.78557 30.5404 10.2449L34.7779 13.7793C34.8963 13.8773 34.9847 14.0067 35.0328 14.1526C35.0809 14.2986 35.0868 14.4552 35.0498 14.6043L33.7841 19.5918C33.5685 20.4356 34.4685 21.1199 35.1904 20.6606L39.5873 17.8762C39.7106 17.7978 39.8536 17.7562 39.9998 17.7562C40.1459 17.7562 40.289 17.7978 40.4123 17.8762Z" fill="#33BC8B"/>
<path d="M68.4123 17.8762L73.1373 20.8762C73.7466 21.2606 74.4966 20.6887 74.3185 19.9856L72.9498 14.6043C72.9127 14.4552 72.9186 14.2986 72.9667 14.1526C73.0148 14.0067 73.1032 13.8773 73.2216 13.7793L77.4591 10.2449C78.0123 9.78557 77.731 8.85744 77.0091 8.81057L71.4779 8.45432C71.327 8.44554 71.1819 8.39298 71.0603 8.30308C70.9388 8.21318 70.8461 8.08981 70.7935 7.94807L68.731 2.75432C68.6764 2.60423 68.5769 2.47457 68.4461 2.38295C68.3153 2.29133 68.1595 2.24219 67.9998 2.24219C67.84 2.24219 67.6842 2.29133 67.5534 2.38295C67.4226 2.47457 67.3231 2.60423 67.2685 2.75432L65.206 7.94807C65.1534 8.08981 65.0607 8.21318 64.9392 8.30308C64.8176 8.39298 64.6725 8.44554 64.5216 8.45432L58.9904 8.81057C58.2685 8.85744 57.9873 9.78557 58.5404 10.2449L62.7779 13.7793C62.8963 13.8773 62.9847 14.0067 63.0328 14.1526C63.0809 14.2986 63.0868 14.4552 63.0498 14.6043L61.7841 19.5918C61.5685 20.4356 62.4685 21.1199 63.1904 20.6606L67.5873 17.8762C67.7106 17.7978 67.8536 17.7562 67.9998 17.7562C68.1459 17.7562 68.289 17.7978 68.4123 17.8762Z" fill="#33BC8B"/>
<path d="M96.4123 17.8762L101.137 20.8762C101.747 21.2606 102.497 20.6887 102.319 19.9856L100.95 14.6043C100.913 14.4552 100.919 14.2986 100.967 14.1526C101.015 14.0067 101.103 13.8773 101.222 13.7793L105.459 10.2449C106.012 9.78557 105.731 8.85744 105.009 8.81057L99.4779 8.45432C99.327 8.44554 99.1819 8.39298 99.0603 8.30308C98.9388 8.21318 98.8461 8.08981 98.7935 7.94807L96.731 2.75432C96.6764 2.60423 96.5769 2.47457 96.4461 2.38295C96.3153 2.29133 96.1595 2.24219 95.9998 2.24219C95.84 2.24219 95.6842 2.29133 95.5534 2.38295C95.4226 2.47457 95.3231 2.60423 95.2685 2.75432L93.206 7.94807C93.1534 8.08981 93.0607 8.21318 92.9392 8.30308C92.8176 8.39298 92.6725 8.44554 92.5216 8.45432L86.9904 8.81057C86.2685 8.85744 85.9873 9.78557 86.5404 10.2449L90.7779 13.7793C90.8963 13.8773 90.9847 14.0067 91.0328 14.1526C91.0809 14.2986 91.0868 14.4552 91.0498 14.6043L89.7841 19.5918C89.5685 20.4356 90.4685 21.1199 91.1904 20.6606L95.5873 17.8762C95.7106 17.7978 95.8536 17.7562 95.9998 17.7562C96.1459 17.7562 96.289 17.7978 96.4123 17.8762Z" fill="#33BC8B"/>
<path d="M124.412 17.8762L129.137 20.8762C129.747 21.2606 130.497 20.6887 130.319 19.9856L128.95 14.6043C128.913 14.4552 128.919 14.2986 128.967 14.1526C129.015 14.0067 129.103 13.8773 129.222 13.7793L133.459 10.2449C134.012 9.78557 133.731 8.85744 133.009 8.81057L127.478 8.45432C127.327 8.44554 127.182 8.39298 127.06 8.30308C126.939 8.21318 126.846 8.08981 126.794 7.94807L124.731 2.75432C124.676 2.60423 124.577 2.47457 124.446 2.38295C124.315 2.29133 124.159 2.24219 124 2.24219C123.84 2.24219 123.684 2.29133 123.553 2.38295C123.423 2.47457 123.323 2.60423 123.269 2.75432L121.206 7.94807C121.153 8.08981 121.061 8.21318 120.939 8.30308C120.818 8.39298 120.673 8.44554 120.522 8.45432L114.99 8.81057C114.269 8.85744 113.987 9.78557 114.54 10.2449L118.778 13.7793C118.896 13.8773 118.985 14.0067 119.033 14.1526C119.081 14.2986 119.087 14.4552 119.05 14.6043L117.784 19.5918C117.569 20.4356 118.469 21.1199 119.19 20.6606L123.587 17.8762C123.711 17.7978 123.854 17.7562 124 17.7562C124.146 17.7562 124.289 17.7978 124.412 17.8762Z" fill="#33BC8B"/>
</svg>
