<svg width="32" height="32" viewBox="0 0 32 32" fill="none" xmlns="http://www.w3.org/2000/svg">
<path d="M16.0002 11.0004C16.0003 9.85156 16.3959 8.73783 17.1206 7.84641C17.8452 6.95498 18.8547 6.34023 19.9792 6.10551C21.1038 5.87078 22.2749 6.0304 23.2956 6.55752C24.3164 7.08464 25.1245 7.94712 25.5841 8.99996L30.0002 9L25.9674 13.0328C25.7048 17.089 23.9083 20.8933 20.9428 23.6731C17.9772 26.4529 14.0649 27.9999 10.0002 28C6.00019 28 5.00019 26.5 5.00019 26.5C5.00019 26.5 9.00019 25 11.0002 22C11.0002 22 3.00019 18 5.00019 7C5.00019 7 10.0002 12 15.9985 13L16.0002 11.0004Z" stroke="white" stroke-width="1.5" stroke-linecap="round" stroke-linejoin="round"/>
</svg>
