<svg width="32" height="32" viewBox="0 0 32 32" fill="none" xmlns="http://www.w3.org/2000/svg">
<path d="M20 16L14 12V20L20 16Z" stroke="white" stroke-width="1.5" stroke-linecap="round" stroke-linejoin="round"/>
<path d="M3 16.0009C3 19.7259 3.3875 21.9009 3.675 23.0259C3.75427 23.3311 3.90418 23.6134 4.11262 23.8501C4.32106 24.0868 4.58221 24.2712 4.875 24.3884C9.0625 25.9884 16 25.9509 16 25.9509C16 25.9509 22.9375 25.9884 27.125 24.3884C27.4178 24.2712 27.6789 24.0868 27.8874 23.8501C28.0958 23.6134 28.2457 23.3311 28.325 23.0259C28.6125 21.9009 29 19.7259 29 16.0009C29 12.2759 28.6125 10.1009 28.325 8.97586C28.2457 8.67061 28.0958 8.38826 27.8874 8.15159C27.6789 7.91492 27.4178 7.73056 27.125 7.61336C22.9375 6.01336 16 6.05086 16 6.05086C16 6.05086 9.0625 6.01336 4.875 7.61336C4.58221 7.73056 4.32106 7.91492 4.11262 8.15159C3.90418 8.38826 3.75427 8.67061 3.675 8.97586C3.3875 10.1009 3 12.2759 3 16.0009Z" stroke="white" stroke-width="1.5" stroke-linecap="round" stroke-linejoin="round"/>
</svg>
